<mxfile host="app.diagrams.net" modified="2024-06-24T01:49:47.868Z" agent="Mozilla/5.0 (Windows NT 10.0; Win64; x64) AppleWebKit/537.36 (KHTML, like Gecko) Chrome/126.0.0.0 Safari/537.36" etag="Ack3c-9EmczrnDq1KMn2" version="24.6.2" type="github" pages="2">
  <diagram name="ページ1" id="GL_5qgy2zLALvyrF6DME">
    <mxGraphModel dx="392" dy="1630" grid="1" gridSize="10" guides="1" tooltips="1" connect="1" arrows="1" fold="1" page="1" pageScale="1" pageWidth="827" pageHeight="1169" math="0" shadow="0">
      <root>
        <mxCell id="0" />
        <mxCell id="1" parent="0" />
        <mxCell id="TsLZXEIDUviy_V3m9eH4-24" style="edgeStyle=orthogonalEdgeStyle;rounded=0;orthogonalLoop=1;jettySize=auto;html=1;exitX=0.5;exitY=1;exitDx=0;exitDy=0;entryX=0.5;entryY=0;entryDx=0;entryDy=0;" parent="1" source="TsLZXEIDUviy_V3m9eH4-5" target="TsLZXEIDUviy_V3m9eH4-21" edge="1">
          <mxGeometry relative="1" as="geometry" />
        </mxCell>
        <mxCell id="TsLZXEIDUviy_V3m9eH4-5" value="START" style="rounded=1;whiteSpace=wrap;html=1;" parent="1" vertex="1">
          <mxGeometry x="140.01" y="-20" width="80" height="30" as="geometry" />
        </mxCell>
        <mxCell id="TsLZXEIDUviy_V3m9eH4-6" value="売り切れランプ表示" style="shape=process;whiteSpace=wrap;html=1;backgroundOutline=1;" parent="1" vertex="1">
          <mxGeometry x="120.00999999999999" y="30" width="120" height="40" as="geometry" />
        </mxCell>
        <mxCell id="g65PGssA2T8bAS9LpWtc-148" style="edgeStyle=none;curved=1;rounded=0;orthogonalLoop=1;jettySize=auto;html=1;entryX=0.5;entryY=0;entryDx=0;entryDy=0;fontSize=12;startSize=8;endSize=8;" parent="1" source="TsLZXEIDUviy_V3m9eH4-13" target="TsLZXEIDUviy_V3m9eH4-20" edge="1">
          <mxGeometry relative="1" as="geometry">
            <mxPoint x="178.75" y="560" as="targetPoint" />
          </mxGeometry>
        </mxCell>
        <mxCell id="TsLZXEIDUviy_V3m9eH4-13" value="商品ボタンのランプ点灯" style="shape=process;whiteSpace=wrap;html=1;backgroundOutline=1;" parent="1" vertex="1">
          <mxGeometry x="128.75" y="425" width="100" height="40" as="geometry" />
        </mxCell>
        <mxCell id="TsLZXEIDUviy_V3m9eH4-20" value="END" style="rounded=1;whiteSpace=wrap;html=1;" parent="1" vertex="1">
          <mxGeometry x="140.01999999999998" y="768" width="80" height="30" as="geometry" />
        </mxCell>
        <mxCell id="TsLZXEIDUviy_V3m9eH4-25" style="edgeStyle=orthogonalEdgeStyle;rounded=0;orthogonalLoop=1;jettySize=auto;html=1;exitX=0.5;exitY=1;exitDx=0;exitDy=0;entryX=0.5;entryY=0;entryDx=0;entryDy=0;" parent="1" source="TsLZXEIDUviy_V3m9eH4-21" edge="1">
          <mxGeometry relative="1" as="geometry">
            <mxPoint x="180" y="210" as="targetPoint" />
          </mxGeometry>
        </mxCell>
        <mxCell id="TsLZXEIDUviy_V3m9eH4-21" value="お金を投入する" style="rounded=0;whiteSpace=wrap;html=1;" parent="1" vertex="1">
          <mxGeometry x="128.75" y="90" width="102.5" height="30" as="geometry" />
        </mxCell>
        <mxCell id="g65PGssA2T8bAS9LpWtc-30" style="edgeStyle=none;curved=1;rounded=0;orthogonalLoop=1;jettySize=auto;html=1;exitX=0.5;exitY=1;exitDx=0;exitDy=0;entryX=0.5;entryY=0;entryDx=0;entryDy=0;fontSize=12;startSize=8;endSize=8;" parent="1" source="g65PGssA2T8bAS9LpWtc-6" target="g65PGssA2T8bAS9LpWtc-10" edge="1">
          <mxGeometry relative="1" as="geometry" />
        </mxCell>
        <mxCell id="g65PGssA2T8bAS9LpWtc-6" value="&lt;div&gt;お茶のボタン&lt;/div&gt;&lt;div&gt;←点灯&lt;/div&gt;" style="rounded=0;whiteSpace=wrap;html=1;" parent="1" vertex="1">
          <mxGeometry x="1192.25" y="798" width="80" height="40" as="geometry" />
        </mxCell>
        <mxCell id="g65PGssA2T8bAS9LpWtc-33" style="edgeStyle=none;curved=1;rounded=0;orthogonalLoop=1;jettySize=auto;html=1;exitX=0.5;exitY=1;exitDx=0;exitDy=0;fontSize=12;startSize=8;endSize=8;" parent="1" source="g65PGssA2T8bAS9LpWtc-7" target="g65PGssA2T8bAS9LpWtc-25" edge="1">
          <mxGeometry relative="1" as="geometry" />
        </mxCell>
        <mxCell id="g65PGssA2T8bAS9LpWtc-7" value="コーヒーのボタン←点灯" style="rounded=0;whiteSpace=wrap;html=1;" parent="1" vertex="1">
          <mxGeometry x="1180.25" y="1238.5" width="106" height="40" as="geometry" />
        </mxCell>
        <mxCell id="g65PGssA2T8bAS9LpWtc-29" style="edgeStyle=none;curved=1;rounded=0;orthogonalLoop=1;jettySize=auto;html=1;exitX=0.5;exitY=1;exitDx=0;exitDy=0;entryX=0.5;entryY=0;entryDx=0;entryDy=0;fontSize=12;startSize=8;endSize=8;" parent="1" source="g65PGssA2T8bAS9LpWtc-8" target="g65PGssA2T8bAS9LpWtc-6" edge="1">
          <mxGeometry relative="1" as="geometry" />
        </mxCell>
        <mxCell id="g65PGssA2T8bAS9LpWtc-8" value="合計金額≧130" style="rhombus;whiteSpace=wrap;html=1;" parent="1" vertex="1">
          <mxGeometry x="1157.25" y="727.5" width="150" height="50" as="geometry" />
        </mxCell>
        <mxCell id="g65PGssA2T8bAS9LpWtc-31" style="edgeStyle=none;curved=1;rounded=0;orthogonalLoop=1;jettySize=auto;html=1;exitX=0.5;exitY=1;exitDx=0;exitDy=0;entryX=0.5;entryY=0;entryDx=0;entryDy=0;fontSize=12;startSize=8;endSize=8;" parent="1" source="g65PGssA2T8bAS9LpWtc-10" target="g65PGssA2T8bAS9LpWtc-28" edge="1">
          <mxGeometry relative="1" as="geometry">
            <mxPoint x="1233.25" y="1012.4999999999999" as="sourcePoint" />
          </mxGeometry>
        </mxCell>
        <mxCell id="g65PGssA2T8bAS9LpWtc-35" style="edgeStyle=none;curved=1;rounded=0;orthogonalLoop=1;jettySize=auto;html=1;exitX=1;exitY=0.5;exitDx=0;exitDy=0;fontSize=12;startSize=8;endSize=8;" parent="1" source="g65PGssA2T8bAS9LpWtc-10" edge="1">
          <mxGeometry relative="1" as="geometry">
            <mxPoint x="1457.25" y="977.5" as="targetPoint" />
          </mxGeometry>
        </mxCell>
        <mxCell id="g65PGssA2T8bAS9LpWtc-10" value="合計金額≧160" style="rhombus;whiteSpace=wrap;html=1;" parent="1" vertex="1">
          <mxGeometry x="1157.25" y="952.5" width="150" height="50" as="geometry" />
        </mxCell>
        <mxCell id="g65PGssA2T8bAS9LpWtc-22" style="edgeStyle=none;curved=1;rounded=0;orthogonalLoop=1;jettySize=auto;html=1;exitX=0.5;exitY=1;exitDx=0;exitDy=0;entryX=0.5;entryY=0;entryDx=0;entryDy=0;fontSize=12;startSize=8;endSize=8;" parent="1" source="g65PGssA2T8bAS9LpWtc-11" target="g65PGssA2T8bAS9LpWtc-7" edge="1">
          <mxGeometry relative="1" as="geometry" />
        </mxCell>
        <mxCell id="g65PGssA2T8bAS9LpWtc-36" style="edgeStyle=none;curved=1;rounded=0;orthogonalLoop=1;jettySize=auto;html=1;exitX=1;exitY=0.5;exitDx=0;exitDy=0;fontSize=12;startSize=8;endSize=8;" parent="1" source="g65PGssA2T8bAS9LpWtc-11" edge="1">
          <mxGeometry relative="1" as="geometry">
            <mxPoint x="1457.25" y="1193.5" as="targetPoint" />
          </mxGeometry>
        </mxCell>
        <mxCell id="g65PGssA2T8bAS9LpWtc-11" value="合計金額≧200" style="rhombus;whiteSpace=wrap;html=1;" parent="1" vertex="1">
          <mxGeometry x="1158.25" y="1168.5" width="150" height="50" as="geometry" />
        </mxCell>
        <mxCell id="g65PGssA2T8bAS9LpWtc-25" value="リターン" style="rounded=1;whiteSpace=wrap;html=1;" parent="1" vertex="1">
          <mxGeometry x="1192.25" y="1318.5" width="80" height="30" as="geometry" />
        </mxCell>
        <mxCell id="g65PGssA2T8bAS9LpWtc-32" style="edgeStyle=none;curved=1;rounded=0;orthogonalLoop=1;jettySize=auto;html=1;exitX=0.5;exitY=1;exitDx=0;exitDy=0;entryX=0.5;entryY=0;entryDx=0;entryDy=0;fontSize=12;startSize=8;endSize=8;" parent="1" source="g65PGssA2T8bAS9LpWtc-28" target="g65PGssA2T8bAS9LpWtc-11" edge="1">
          <mxGeometry relative="1" as="geometry" />
        </mxCell>
        <mxCell id="g65PGssA2T8bAS9LpWtc-28" value="ジュースのボタン←点灯" style="rounded=0;whiteSpace=wrap;html=1;" parent="1" vertex="1">
          <mxGeometry x="1180.25" y="1022.5" width="106" height="40" as="geometry" />
        </mxCell>
        <mxCell id="g65PGssA2T8bAS9LpWtc-34" value="" style="edgeStyle=segmentEdgeStyle;endArrow=classic;html=1;curved=0;rounded=0;endSize=8;startSize=8;fontSize=12;exitX=1;exitY=0.5;exitDx=0;exitDy=0;" parent="1" source="g65PGssA2T8bAS9LpWtc-367" edge="1">
          <mxGeometry width="50" height="50" relative="1" as="geometry">
            <mxPoint x="1298.2500000000002" y="707.5" as="sourcePoint" />
            <mxPoint x="1229.25" y="862.5" as="targetPoint" />
            <Array as="points">
              <mxPoint x="1448.25" y="678" />
              <mxPoint x="1448.25" y="862" />
            </Array>
          </mxGeometry>
        </mxCell>
        <mxCell id="g65PGssA2T8bAS9LpWtc-38" style="edgeStyle=none;curved=1;rounded=0;orthogonalLoop=1;jettySize=auto;html=1;exitX=0.5;exitY=1;exitDx=0;exitDy=0;entryX=0.5;entryY=0;entryDx=0;entryDy=0;fontSize=12;startSize=8;endSize=8;" parent="1" source="g65PGssA2T8bAS9LpWtc-37" target="g65PGssA2T8bAS9LpWtc-8" edge="1">
          <mxGeometry relative="1" as="geometry" />
        </mxCell>
        <mxCell id="g65PGssA2T8bAS9LpWtc-37" value="商品ボタンの&lt;div&gt;ランプ点灯&lt;/div&gt;" style="rounded=1;whiteSpace=wrap;html=1;" parent="1" vertex="1">
          <mxGeometry x="1189.25" y="592.5" width="86" height="40" as="geometry" />
        </mxCell>
        <mxCell id="g65PGssA2T8bAS9LpWtc-41" value="&lt;font style=&quot;font-size: 11px;&quot;&gt;投入金額&lt;/font&gt;" style="rhombus;whiteSpace=wrap;html=1;" parent="1" vertex="1">
          <mxGeometry x="1057.25" y="120" width="110" height="40" as="geometry" />
        </mxCell>
        <mxCell id="g65PGssA2T8bAS9LpWtc-54" value="合計金額 ← 合計金額 + 1000" style="rounded=0;whiteSpace=wrap;html=1;" parent="1" vertex="1">
          <mxGeometry x="1174.25" y="210" width="170" height="30" as="geometry" />
        </mxCell>
        <mxCell id="g65PGssA2T8bAS9LpWtc-91" style="edgeStyle=none;curved=1;rounded=0;orthogonalLoop=1;jettySize=auto;html=1;exitX=1;exitY=0.5;exitDx=0;exitDy=0;fontSize=12;startSize=8;endSize=8;" parent="1" source="g65PGssA2T8bAS9LpWtc-55" edge="1">
          <mxGeometry relative="1" as="geometry">
            <mxPoint x="1407.25" y="285" as="targetPoint" />
          </mxGeometry>
        </mxCell>
        <mxCell id="g65PGssA2T8bAS9LpWtc-55" value="合計金額 ← 合計金額 + 500" style="rounded=0;whiteSpace=wrap;html=1;" parent="1" vertex="1">
          <mxGeometry x="1174.25" y="270" width="170" height="30" as="geometry" />
        </mxCell>
        <mxCell id="g65PGssA2T8bAS9LpWtc-90" style="edgeStyle=none;curved=1;rounded=0;orthogonalLoop=1;jettySize=auto;html=1;exitX=1;exitY=0.5;exitDx=0;exitDy=0;fontSize=12;startSize=8;endSize=8;" parent="1" source="g65PGssA2T8bAS9LpWtc-56" edge="1">
          <mxGeometry relative="1" as="geometry">
            <mxPoint x="1407.25" y="345" as="targetPoint" />
          </mxGeometry>
        </mxCell>
        <mxCell id="g65PGssA2T8bAS9LpWtc-56" value="合計金額 ← 合計金額 + 100" style="rounded=0;whiteSpace=wrap;html=1;" parent="1" vertex="1">
          <mxGeometry x="1174.25" y="330" width="170" height="30" as="geometry" />
        </mxCell>
        <mxCell id="g65PGssA2T8bAS9LpWtc-89" style="edgeStyle=none;curved=1;rounded=0;orthogonalLoop=1;jettySize=auto;html=1;exitX=1;exitY=0.5;exitDx=0;exitDy=0;fontSize=12;startSize=8;endSize=8;" parent="1" source="g65PGssA2T8bAS9LpWtc-57" edge="1">
          <mxGeometry relative="1" as="geometry">
            <mxPoint x="1407.25" y="405" as="targetPoint" />
          </mxGeometry>
        </mxCell>
        <mxCell id="g65PGssA2T8bAS9LpWtc-57" value="合計金額 ← 合計金額 + 50" style="rounded=0;whiteSpace=wrap;html=1;" parent="1" vertex="1">
          <mxGeometry x="1174.25" y="390" width="170" height="30" as="geometry" />
        </mxCell>
        <mxCell id="g65PGssA2T8bAS9LpWtc-97" style="edgeStyle=none;curved=1;rounded=0;orthogonalLoop=1;jettySize=auto;html=1;exitX=1;exitY=0.5;exitDx=0;exitDy=0;entryX=0;entryY=0.5;entryDx=0;entryDy=0;fontSize=12;startSize=8;endSize=8;" parent="1" source="g65PGssA2T8bAS9LpWtc-59" target="g65PGssA2T8bAS9LpWtc-96" edge="1">
          <mxGeometry relative="1" as="geometry" />
        </mxCell>
        <mxCell id="g65PGssA2T8bAS9LpWtc-59" value="返却フラグ←True" style="rounded=0;whiteSpace=wrap;html=1;" parent="1" vertex="1">
          <mxGeometry x="1174.25" y="500" width="170" height="30" as="geometry" />
        </mxCell>
        <mxCell id="g65PGssA2T8bAS9LpWtc-61" value="" style="edgeStyle=segmentEdgeStyle;endArrow=classic;html=1;curved=0;rounded=0;endSize=8;startSize=8;fontSize=12;entryX=0;entryY=0.5;entryDx=0;entryDy=0;exitX=0.5;exitY=1;exitDx=0;exitDy=0;" parent="1" source="g65PGssA2T8bAS9LpWtc-41" target="g65PGssA2T8bAS9LpWtc-59" edge="1">
          <mxGeometry width="50" height="50" relative="1" as="geometry">
            <mxPoint x="1112.25" y="170" as="sourcePoint" />
            <mxPoint x="1107.25" y="230" as="targetPoint" />
            <Array as="points">
              <mxPoint x="1112.25" y="515" />
            </Array>
          </mxGeometry>
        </mxCell>
        <mxCell id="g65PGssA2T8bAS9LpWtc-62" value="" style="endArrow=classic;html=1;rounded=0;fontSize=12;startSize=8;endSize=8;curved=1;entryX=0;entryY=0.5;entryDx=0;entryDy=0;" parent="1" target="g65PGssA2T8bAS9LpWtc-57" edge="1">
          <mxGeometry width="50" height="50" relative="1" as="geometry">
            <mxPoint x="1117.25" y="405" as="sourcePoint" />
            <mxPoint x="1057.25" y="420" as="targetPoint" />
          </mxGeometry>
        </mxCell>
        <mxCell id="g65PGssA2T8bAS9LpWtc-63" value="" style="endArrow=classic;html=1;rounded=0;fontSize=12;startSize=8;endSize=8;curved=1;entryX=0;entryY=0.5;entryDx=0;entryDy=0;" parent="1" edge="1">
          <mxGeometry width="50" height="50" relative="1" as="geometry">
            <mxPoint x="1117.25" y="344.71" as="sourcePoint" />
            <mxPoint x="1174.25" y="344.71" as="targetPoint" />
          </mxGeometry>
        </mxCell>
        <mxCell id="g65PGssA2T8bAS9LpWtc-64" value="" style="endArrow=classic;html=1;rounded=0;fontSize=12;startSize=8;endSize=8;curved=1;entryX=0;entryY=0.5;entryDx=0;entryDy=0;" parent="1" edge="1">
          <mxGeometry width="50" height="50" relative="1" as="geometry">
            <mxPoint x="1117.25" y="284.71" as="sourcePoint" />
            <mxPoint x="1174.25" y="284.71" as="targetPoint" />
          </mxGeometry>
        </mxCell>
        <mxCell id="g65PGssA2T8bAS9LpWtc-65" value="" style="endArrow=classic;html=1;rounded=0;fontSize=12;startSize=8;endSize=8;curved=1;entryX=0;entryY=0.5;entryDx=0;entryDy=0;" parent="1" edge="1">
          <mxGeometry width="50" height="50" relative="1" as="geometry">
            <mxPoint x="1117.25" y="224.70999999999998" as="sourcePoint" />
            <mxPoint x="1174.25" y="224.70999999999998" as="targetPoint" />
          </mxGeometry>
        </mxCell>
        <mxCell id="g65PGssA2T8bAS9LpWtc-66" value="&lt;font style=&quot;font-weight: normal; font-size: 10px;&quot;&gt;投入金額 = 1000円札&lt;/font&gt;" style="text;strokeColor=none;fillColor=none;html=1;fontSize=24;fontStyle=1;verticalAlign=middle;align=center;" parent="1" vertex="1">
          <mxGeometry x="1127.25" y="170" width="100" height="40" as="geometry" />
        </mxCell>
        <mxCell id="g65PGssA2T8bAS9LpWtc-68" value="&lt;font style=&quot;font-weight: normal; font-size: 10px;&quot;&gt;投入金額 = 500円玉&lt;/font&gt;" style="text;strokeColor=none;fillColor=none;html=1;fontSize=24;fontStyle=1;verticalAlign=middle;align=center;" parent="1" vertex="1">
          <mxGeometry x="1127.25" y="230" width="100" height="40" as="geometry" />
        </mxCell>
        <mxCell id="g65PGssA2T8bAS9LpWtc-69" value="&lt;font style=&quot;font-weight: normal; font-size: 10px;&quot;&gt;投入金額 = 100円玉&lt;/font&gt;" style="text;strokeColor=none;fillColor=none;html=1;fontSize=24;fontStyle=1;verticalAlign=middle;align=center;" parent="1" vertex="1">
          <mxGeometry x="1127.25" y="290" width="100" height="40" as="geometry" />
        </mxCell>
        <mxCell id="g65PGssA2T8bAS9LpWtc-70" value="&lt;font style=&quot;font-weight: normal; font-size: 10px;&quot;&gt;投入金額 = 50円玉&lt;/font&gt;" style="text;strokeColor=none;fillColor=none;html=1;fontSize=24;fontStyle=1;verticalAlign=middle;align=center;" parent="1" vertex="1">
          <mxGeometry x="1127.25" y="350" width="100" height="40" as="geometry" />
        </mxCell>
        <mxCell id="g65PGssA2T8bAS9LpWtc-71" value="&lt;font style=&quot;font-weight: normal; font-size: 10px;&quot;&gt;投入金額 = 10円玉&lt;/font&gt;" style="text;strokeColor=none;fillColor=none;html=1;fontSize=24;fontStyle=1;verticalAlign=middle;align=center;" parent="1" vertex="1">
          <mxGeometry x="1127.25" y="410" width="100" height="40" as="geometry" />
        </mxCell>
        <mxCell id="g65PGssA2T8bAS9LpWtc-88" style="edgeStyle=none;curved=1;rounded=0;orthogonalLoop=1;jettySize=auto;html=1;exitX=1;exitY=0.5;exitDx=0;exitDy=0;fontSize=12;startSize=8;endSize=8;" parent="1" source="g65PGssA2T8bAS9LpWtc-72" edge="1">
          <mxGeometry relative="1" as="geometry">
            <mxPoint x="1407.25" y="465" as="targetPoint" />
          </mxGeometry>
        </mxCell>
        <mxCell id="g65PGssA2T8bAS9LpWtc-72" value="合計金額 ← 合計金額 + 10" style="rounded=0;whiteSpace=wrap;html=1;" parent="1" vertex="1">
          <mxGeometry x="1174.25" y="450" width="170" height="30" as="geometry" />
        </mxCell>
        <mxCell id="g65PGssA2T8bAS9LpWtc-73" value="&lt;span style=&quot;font-size: 10px; font-weight: 400;&quot;&gt;その他&lt;/span&gt;" style="text;strokeColor=none;fillColor=none;html=1;fontSize=24;fontStyle=1;verticalAlign=middle;align=center;" parent="1" vertex="1">
          <mxGeometry x="1107.25" y="467" width="100" height="40" as="geometry" />
        </mxCell>
        <mxCell id="g65PGssA2T8bAS9LpWtc-75" value="" style="endArrow=classic;html=1;rounded=0;fontSize=12;startSize=8;endSize=8;curved=1;entryX=0;entryY=0.5;entryDx=0;entryDy=0;" parent="1" edge="1">
          <mxGeometry width="50" height="50" relative="1" as="geometry">
            <mxPoint x="1117.25" y="464.65999999999997" as="sourcePoint" />
            <mxPoint x="1174.25" y="464.65999999999997" as="targetPoint" />
          </mxGeometry>
        </mxCell>
        <mxCell id="g65PGssA2T8bAS9LpWtc-77" value="" style="edgeStyle=segmentEdgeStyle;endArrow=classic;html=1;curved=0;rounded=0;endSize=8;startSize=8;fontSize=12;exitX=1;exitY=0.5;exitDx=0;exitDy=0;entryX=0;entryY=0.5;entryDx=0;entryDy=0;" parent="1" source="g65PGssA2T8bAS9LpWtc-54" target="g65PGssA2T8bAS9LpWtc-86" edge="1">
          <mxGeometry width="50" height="50" relative="1" as="geometry">
            <mxPoint x="1122.25" y="170" as="sourcePoint" />
            <mxPoint x="1437.25" y="500" as="targetPoint" />
            <Array as="points">
              <mxPoint x="1407.25" y="225" />
              <mxPoint x="1407.25" y="465" />
            </Array>
          </mxGeometry>
        </mxCell>
        <mxCell id="g65PGssA2T8bAS9LpWtc-85" style="edgeStyle=none;curved=1;rounded=0;orthogonalLoop=1;jettySize=auto;html=1;entryX=0.5;entryY=0;entryDx=0;entryDy=0;fontSize=12;startSize=8;endSize=8;" parent="1" source="g65PGssA2T8bAS9LpWtc-79" target="g65PGssA2T8bAS9LpWtc-41" edge="1">
          <mxGeometry relative="1" as="geometry" />
        </mxCell>
        <mxCell id="g65PGssA2T8bAS9LpWtc-79" value="表示金額の計算" style="rounded=1;whiteSpace=wrap;html=1;" parent="1" vertex="1">
          <mxGeometry x="1064.75" y="10" width="95" height="30" as="geometry" />
        </mxCell>
        <mxCell id="g65PGssA2T8bAS9LpWtc-81" style="edgeStyle=none;curved=1;rounded=0;orthogonalLoop=1;jettySize=auto;html=1;exitX=0.5;exitY=0;exitDx=0;exitDy=0;fontSize=12;startSize=8;endSize=8;" parent="1" source="g65PGssA2T8bAS9LpWtc-79" target="g65PGssA2T8bAS9LpWtc-79" edge="1">
          <mxGeometry relative="1" as="geometry" />
        </mxCell>
        <mxCell id="g65PGssA2T8bAS9LpWtc-86" value="&lt;div&gt;「合計金額」を&lt;/div&gt;&lt;div&gt;リターン&lt;/div&gt;" style="rounded=1;whiteSpace=wrap;html=1;" parent="1" vertex="1">
          <mxGeometry x="1457.25" y="445" width="109" height="40" as="geometry" />
        </mxCell>
        <mxCell id="g65PGssA2T8bAS9LpWtc-100" style="edgeStyle=none;curved=1;rounded=0;orthogonalLoop=1;jettySize=auto;html=1;exitX=0.5;exitY=1;exitDx=0;exitDy=0;entryX=0.5;entryY=0;entryDx=0;entryDy=0;fontSize=12;startSize=8;endSize=8;" parent="1" source="g65PGssA2T8bAS9LpWtc-93" target="g65PGssA2T8bAS9LpWtc-98" edge="1">
          <mxGeometry relative="1" as="geometry" />
        </mxCell>
        <mxCell id="g65PGssA2T8bAS9LpWtc-93" value="表示金額の計算" style="shape=process;whiteSpace=wrap;html=1;backgroundOutline=1;" parent="1" vertex="1">
          <mxGeometry x="125" y="150" width="110" height="40" as="geometry" />
        </mxCell>
        <mxCell id="g65PGssA2T8bAS9LpWtc-96" value="&lt;div&gt;「返却」を&lt;/div&gt;&lt;div&gt;リターン&lt;/div&gt;" style="rounded=1;whiteSpace=wrap;html=1;" parent="1" vertex="1">
          <mxGeometry x="1457.25" y="495" width="109" height="40" as="geometry" />
        </mxCell>
        <mxCell id="g65PGssA2T8bAS9LpWtc-151" style="edgeStyle=none;curved=1;rounded=0;orthogonalLoop=1;jettySize=auto;html=1;entryX=0.5;entryY=0;entryDx=0;entryDy=0;fontSize=12;startSize=8;endSize=8;" parent="1" source="g65PGssA2T8bAS9LpWtc-98" target="TsLZXEIDUviy_V3m9eH4-13" edge="1">
          <mxGeometry relative="1" as="geometry" />
        </mxCell>
        <mxCell id="g65PGssA2T8bAS9LpWtc-98" value="&lt;font style=&quot;font-size: 11px;&quot;&gt;返却フラグ = True&lt;/font&gt;" style="rhombus;whiteSpace=wrap;html=1;" parent="1" vertex="1">
          <mxGeometry x="110" y="220" width="140" height="50" as="geometry" />
        </mxCell>
        <mxCell id="g65PGssA2T8bAS9LpWtc-102" value="投入金額を返却" style="rounded=0;whiteSpace=wrap;html=1;" parent="1" vertex="1">
          <mxGeometry x="250" y="265" width="90" height="30" as="geometry" />
        </mxCell>
        <mxCell id="g65PGssA2T8bAS9LpWtc-105" value="" style="edgeStyle=segmentEdgeStyle;endArrow=classic;html=1;curved=0;rounded=0;endSize=8;startSize=8;fontSize=12;exitX=1;exitY=0.5;exitDx=0;exitDy=0;entryX=0.5;entryY=0;entryDx=0;entryDy=0;" parent="1" source="g65PGssA2T8bAS9LpWtc-98" target="g65PGssA2T8bAS9LpWtc-102" edge="1">
          <mxGeometry width="50" height="50" relative="1" as="geometry">
            <mxPoint x="510" y="310" as="sourcePoint" />
            <mxPoint x="560" y="260" as="targetPoint" />
          </mxGeometry>
        </mxCell>
        <mxCell id="g65PGssA2T8bAS9LpWtc-108" value="返却フラグ ← False" style="rounded=0;whiteSpace=wrap;html=1;" parent="1" vertex="1">
          <mxGeometry x="1049" y="60" width="126.5" height="30" as="geometry" />
        </mxCell>
        <mxCell id="g65PGssA2T8bAS9LpWtc-109" value="合計金額を表示" style="rounded=0;whiteSpace=wrap;html=1;" parent="1" vertex="1">
          <mxGeometry x="135" y="315" width="90" height="30" as="geometry" />
        </mxCell>
        <mxCell id="g65PGssA2T8bAS9LpWtc-130" style="edgeStyle=none;curved=1;rounded=0;orthogonalLoop=1;jettySize=auto;html=1;exitX=0.5;exitY=1;exitDx=0;exitDy=0;entryX=0.5;entryY=0;entryDx=0;entryDy=0;fontSize=12;startSize=8;endSize=8;" parent="1" source="g65PGssA2T8bAS9LpWtc-117" target="g65PGssA2T8bAS9LpWtc-128" edge="1">
          <mxGeometry relative="1" as="geometry" />
        </mxCell>
        <mxCell id="g65PGssA2T8bAS9LpWtc-115" value="&lt;div&gt;お茶のボタン&lt;/div&gt;&lt;div&gt;←消灯&lt;/div&gt;" style="rounded=0;whiteSpace=wrap;html=1;" parent="1" vertex="1">
          <mxGeometry x="1510.5" y="664.5" width="80" height="40" as="geometry" />
        </mxCell>
        <mxCell id="g65PGssA2T8bAS9LpWtc-127" style="edgeStyle=none;curved=1;rounded=0;orthogonalLoop=1;jettySize=auto;html=1;exitX=0.5;exitY=1;exitDx=0;exitDy=0;entryX=0.5;entryY=0;entryDx=0;entryDy=0;fontSize=12;startSize=8;endSize=8;" parent="1" target="g65PGssA2T8bAS9LpWtc-115" edge="1">
          <mxGeometry relative="1" as="geometry">
            <mxPoint x="1550.5" y="634.5" as="sourcePoint" />
          </mxGeometry>
        </mxCell>
        <mxCell id="g65PGssA2T8bAS9LpWtc-128" value="リターン" style="rounded=1;whiteSpace=wrap;html=1;" parent="1" vertex="1">
          <mxGeometry x="1510.5" y="854.5" width="80" height="30" as="geometry" />
        </mxCell>
        <mxCell id="g65PGssA2T8bAS9LpWtc-133" value="" style="edgeStyle=none;curved=1;rounded=0;orthogonalLoop=1;jettySize=auto;html=1;exitX=0.5;exitY=1;exitDx=0;exitDy=0;entryX=0.5;entryY=0;entryDx=0;entryDy=0;fontSize=12;startSize=8;endSize=8;" parent="1" source="g65PGssA2T8bAS9LpWtc-115" target="g65PGssA2T8bAS9LpWtc-116" edge="1">
          <mxGeometry relative="1" as="geometry">
            <mxPoint x="1550.25" y="704.5" as="sourcePoint" />
            <mxPoint x="1550.25" y="884.5" as="targetPoint" />
          </mxGeometry>
        </mxCell>
        <mxCell id="g65PGssA2T8bAS9LpWtc-116" value="&lt;div&gt;ジュースのボタン←消灯&lt;/div&gt;" style="rounded=0;whiteSpace=wrap;html=1;" parent="1" vertex="1">
          <mxGeometry x="1500" y="724.5" width="102.81" height="40" as="geometry" />
        </mxCell>
        <mxCell id="g65PGssA2T8bAS9LpWtc-134" value="" style="edgeStyle=none;curved=1;rounded=0;orthogonalLoop=1;jettySize=auto;html=1;exitX=0.5;exitY=1;exitDx=0;exitDy=0;entryX=0.5;entryY=0;entryDx=0;entryDy=0;fontSize=12;startSize=8;endSize=8;" parent="1" source="g65PGssA2T8bAS9LpWtc-116" target="g65PGssA2T8bAS9LpWtc-117" edge="1">
          <mxGeometry relative="1" as="geometry">
            <mxPoint x="1550.25" y="764.5" as="sourcePoint" />
            <mxPoint x="1550.25" y="884.5" as="targetPoint" />
          </mxGeometry>
        </mxCell>
        <mxCell id="g65PGssA2T8bAS9LpWtc-117" value="&lt;div&gt;コーヒーのボタン←消灯&lt;/div&gt;" style="rounded=0;whiteSpace=wrap;html=1;" parent="1" vertex="1">
          <mxGeometry x="1500" y="784.5" width="102.81" height="40" as="geometry" />
        </mxCell>
        <mxCell id="g65PGssA2T8bAS9LpWtc-139" value="&lt;span style=&quot;font-size: 11px;&quot;&gt;返却レバーを下した&lt;/span&gt;" style="rhombus;whiteSpace=wrap;html=1;" parent="1" vertex="1">
          <mxGeometry x="100" y="360" width="156.25" height="40" as="geometry" />
        </mxCell>
        <mxCell id="g65PGssA2T8bAS9LpWtc-143" value="商品の排出" style="rounded=0;whiteSpace=wrap;html=1;" parent="1" vertex="1">
          <mxGeometry x="133.75" y="581.5" width="90" height="30" as="geometry" />
        </mxCell>
        <mxCell id="g65PGssA2T8bAS9LpWtc-145" value="" style="edgeStyle=segmentEdgeStyle;endArrow=classic;html=1;curved=0;rounded=0;endSize=8;startSize=8;fontSize=12;" parent="1" edge="1">
          <mxGeometry width="50" height="50" relative="1" as="geometry">
            <mxPoint x="256" y="380" as="sourcePoint" />
            <mxPoint x="180" y="627" as="targetPoint" />
            <Array as="points">
              <mxPoint x="256" y="380" />
              <mxPoint x="380" y="380" />
              <mxPoint x="380" y="627" />
            </Array>
          </mxGeometry>
        </mxCell>
        <mxCell id="g65PGssA2T8bAS9LpWtc-146" value="&lt;font style=&quot;font-weight: normal; font-size: 10px;&quot;&gt;Yes&lt;/font&gt;" style="text;strokeColor=none;fillColor=none;html=1;fontSize=24;fontStyle=1;verticalAlign=middle;align=center;" parent="1" vertex="1">
          <mxGeometry x="135" y="500" width="40" height="35" as="geometry" />
        </mxCell>
        <mxCell id="g65PGssA2T8bAS9LpWtc-147" value="&lt;span style=&quot;font-size: 10px; font-weight: 400;&quot;&gt;No&lt;/span&gt;" style="text;strokeColor=none;fillColor=none;html=1;fontSize=24;fontStyle=1;verticalAlign=middle;align=center;" parent="1" vertex="1">
          <mxGeometry x="93.75" y="385" width="40" height="35" as="geometry" />
        </mxCell>
        <mxCell id="g65PGssA2T8bAS9LpWtc-149" value="" style="edgeStyle=segmentEdgeStyle;endArrow=classic;html=1;curved=0;rounded=0;endSize=8;startSize=8;fontSize=12;exitX=0;exitY=0.5;exitDx=0;exitDy=0;" parent="1" source="g65PGssA2T8bAS9LpWtc-363" edge="1">
          <mxGeometry width="50" height="50" relative="1" as="geometry">
            <mxPoint x="179.99" y="454" as="sourcePoint" />
            <mxPoint x="180" y="130" as="targetPoint" />
            <Array as="points">
              <mxPoint x="20" y="494" />
              <mxPoint x="20" y="130" />
              <mxPoint x="180" y="130" />
            </Array>
          </mxGeometry>
        </mxCell>
        <mxCell id="g65PGssA2T8bAS9LpWtc-152" value="" style="edgeStyle=segmentEdgeStyle;endArrow=classic;html=1;curved=0;rounded=0;endSize=8;startSize=8;fontSize=12;exitX=0.5;exitY=1;exitDx=0;exitDy=0;" parent="1" source="g65PGssA2T8bAS9LpWtc-102" edge="1">
          <mxGeometry width="50" height="50" relative="1" as="geometry">
            <mxPoint x="278.75" y="320" as="sourcePoint" />
            <mxPoint x="180" y="300" as="targetPoint" />
            <Array as="points">
              <mxPoint x="295" y="300" />
              <mxPoint x="180" y="300" />
            </Array>
          </mxGeometry>
        </mxCell>
        <mxCell id="g65PGssA2T8bAS9LpWtc-155" value="商品ボタンの&lt;div&gt;ランプ消灯&lt;/div&gt;" style="rounded=1;whiteSpace=wrap;html=1;" parent="1" vertex="1">
          <mxGeometry x="1500" y="594.5" width="101" height="44.5" as="geometry" />
        </mxCell>
        <mxCell id="g65PGssA2T8bAS9LpWtc-202" value="&lt;font style=&quot;font-size: 11px;&quot;&gt;合計金額&lt;/font&gt;" style="rhombus;whiteSpace=wrap;html=1;" parent="1" vertex="1">
          <mxGeometry x="474.87000000000006" y="904.5" width="110" height="40" as="geometry" />
        </mxCell>
        <mxCell id="g65PGssA2T8bAS9LpWtc-203" value="合計金額 ← 合計金額 - 1000" style="rounded=0;whiteSpace=wrap;html=1;" parent="1" vertex="1">
          <mxGeometry x="733.2399999999999" y="979.5" width="170" height="30" as="geometry" />
        </mxCell>
        <mxCell id="g65PGssA2T8bAS9LpWtc-204" style="edgeStyle=none;curved=1;rounded=0;orthogonalLoop=1;jettySize=auto;html=1;exitX=1;exitY=0.5;exitDx=0;exitDy=0;fontSize=12;startSize=8;endSize=8;" parent="1" source="g65PGssA2T8bAS9LpWtc-205" edge="1">
          <mxGeometry relative="1" as="geometry">
            <mxPoint x="966.2399999999999" y="1054.5" as="targetPoint" />
          </mxGeometry>
        </mxCell>
        <mxCell id="g65PGssA2T8bAS9LpWtc-205" value="合計金額 ← 合計金額 - 500" style="rounded=0;whiteSpace=wrap;html=1;" parent="1" vertex="1">
          <mxGeometry x="733.2399999999999" y="1039.5" width="170" height="30" as="geometry" />
        </mxCell>
        <mxCell id="g65PGssA2T8bAS9LpWtc-206" style="edgeStyle=none;curved=1;rounded=0;orthogonalLoop=1;jettySize=auto;html=1;exitX=1;exitY=0.5;exitDx=0;exitDy=0;fontSize=12;startSize=8;endSize=8;" parent="1" source="g65PGssA2T8bAS9LpWtc-207" edge="1">
          <mxGeometry relative="1" as="geometry">
            <mxPoint x="966.2399999999999" y="1114.5" as="targetPoint" />
          </mxGeometry>
        </mxCell>
        <mxCell id="g65PGssA2T8bAS9LpWtc-207" value="合計金額 ← 合計金額 - 100" style="rounded=0;whiteSpace=wrap;html=1;" parent="1" vertex="1">
          <mxGeometry x="733.2399999999999" y="1099.5" width="170" height="30" as="geometry" />
        </mxCell>
        <mxCell id="g65PGssA2T8bAS9LpWtc-208" style="edgeStyle=none;curved=1;rounded=0;orthogonalLoop=1;jettySize=auto;html=1;exitX=1;exitY=0.5;exitDx=0;exitDy=0;fontSize=12;startSize=8;endSize=8;" parent="1" source="g65PGssA2T8bAS9LpWtc-209" edge="1">
          <mxGeometry relative="1" as="geometry">
            <mxPoint x="966.2399999999999" y="1174.5" as="targetPoint" />
          </mxGeometry>
        </mxCell>
        <mxCell id="g65PGssA2T8bAS9LpWtc-209" value="合計金額 ← 合計金額 - 50" style="rounded=0;whiteSpace=wrap;html=1;" parent="1" vertex="1">
          <mxGeometry x="733.2399999999999" y="1159.5" width="170" height="30" as="geometry" />
        </mxCell>
        <mxCell id="g65PGssA2T8bAS9LpWtc-212" value="" style="edgeStyle=segmentEdgeStyle;endArrow=classic;html=1;curved=0;rounded=0;endSize=8;startSize=8;fontSize=12;entryX=0;entryY=0.5;entryDx=0;entryDy=0;exitX=0.5;exitY=1;exitDx=0;exitDy=0;" parent="1" source="g65PGssA2T8bAS9LpWtc-202" target="g65PGssA2T8bAS9LpWtc-231" edge="1">
          <mxGeometry width="50" height="50" relative="1" as="geometry">
            <mxPoint x="529.87" y="939.5" as="sourcePoint" />
            <mxPoint x="591.8700000000001" y="1284.5" as="targetPoint" />
            <Array as="points">
              <mxPoint x="530.2399999999999" y="1284.5" />
            </Array>
          </mxGeometry>
        </mxCell>
        <mxCell id="g65PGssA2T8bAS9LpWtc-213" value="" style="endArrow=classic;html=1;rounded=0;fontSize=12;startSize=8;endSize=8;curved=1;entryX=0;entryY=0.5;entryDx=0;entryDy=0;" parent="1" target="g65PGssA2T8bAS9LpWtc-239" edge="1">
          <mxGeometry width="50" height="50" relative="1" as="geometry">
            <mxPoint x="534.87" y="1174.5" as="sourcePoint" />
            <mxPoint x="474.87000000000006" y="1189.5" as="targetPoint" />
          </mxGeometry>
        </mxCell>
        <mxCell id="g65PGssA2T8bAS9LpWtc-214" value="" style="endArrow=classic;html=1;rounded=0;fontSize=12;startSize=8;endSize=8;curved=1;entryX=0;entryY=0.5;entryDx=0;entryDy=0;" parent="1" edge="1">
          <mxGeometry width="50" height="50" relative="1" as="geometry">
            <mxPoint x="534.87" y="1114.21" as="sourcePoint" />
            <mxPoint x="591.8700000000001" y="1114.21" as="targetPoint" />
          </mxGeometry>
        </mxCell>
        <mxCell id="g65PGssA2T8bAS9LpWtc-215" value="" style="endArrow=classic;html=1;rounded=0;fontSize=12;startSize=8;endSize=8;curved=1;entryX=0;entryY=0.5;entryDx=0;entryDy=0;" parent="1" edge="1">
          <mxGeometry width="50" height="50" relative="1" as="geometry">
            <mxPoint x="534.87" y="1054.21" as="sourcePoint" />
            <mxPoint x="591.8700000000001" y="1054.21" as="targetPoint" />
          </mxGeometry>
        </mxCell>
        <mxCell id="g65PGssA2T8bAS9LpWtc-216" value="" style="endArrow=classic;html=1;rounded=0;fontSize=12;startSize=8;endSize=8;curved=1;entryX=0;entryY=0.5;entryDx=0;entryDy=0;" parent="1" edge="1">
          <mxGeometry width="50" height="50" relative="1" as="geometry">
            <mxPoint x="534.87" y="994.21" as="sourcePoint" />
            <mxPoint x="591.8700000000001" y="994.21" as="targetPoint" />
          </mxGeometry>
        </mxCell>
        <mxCell id="g65PGssA2T8bAS9LpWtc-217" value="&lt;font style=&quot;font-weight: normal; font-size: 10px;&quot;&gt;合計金額 ≧ 1000&lt;/font&gt;" style="text;strokeColor=none;fillColor=none;html=1;fontSize=24;fontStyle=1;verticalAlign=middle;align=center;" parent="1" vertex="1">
          <mxGeometry x="532.2399999999999" y="945" width="100" height="40" as="geometry" />
        </mxCell>
        <mxCell id="g65PGssA2T8bAS9LpWtc-218" value="&lt;span style=&quot;font-size: 10px; font-weight: 400;&quot;&gt;合計金額 ≧ 500&lt;/span&gt;" style="text;strokeColor=none;fillColor=none;html=1;fontSize=24;fontStyle=1;verticalAlign=middle;align=center;" parent="1" vertex="1">
          <mxGeometry x="532.2399999999999" y="1005" width="100" height="40" as="geometry" />
        </mxCell>
        <mxCell id="g65PGssA2T8bAS9LpWtc-219" value="&lt;span style=&quot;font-size: 10px; font-weight: 400;&quot;&gt;合計金額 ≧ 100&lt;/span&gt;" style="text;strokeColor=none;fillColor=none;html=1;fontSize=24;fontStyle=1;verticalAlign=middle;align=center;" parent="1" vertex="1">
          <mxGeometry x="532.2399999999999" y="1065" width="100" height="40" as="geometry" />
        </mxCell>
        <mxCell id="g65PGssA2T8bAS9LpWtc-220" value="&lt;span style=&quot;font-size: 10px; font-weight: 400;&quot;&gt;合計金額 ≧ 50&lt;/span&gt;" style="text;strokeColor=none;fillColor=none;html=1;fontSize=24;fontStyle=1;verticalAlign=middle;align=center;" parent="1" vertex="1">
          <mxGeometry x="532.2399999999999" y="1125" width="100" height="40" as="geometry" />
        </mxCell>
        <mxCell id="g65PGssA2T8bAS9LpWtc-221" value="&lt;span style=&quot;font-size: 10px; font-weight: 400;&quot;&gt;合計金額 ≧ 10&lt;/span&gt;" style="text;strokeColor=none;fillColor=none;html=1;fontSize=24;fontStyle=1;verticalAlign=middle;align=center;" parent="1" vertex="1">
          <mxGeometry x="532.2399999999999" y="1185" width="100" height="40" as="geometry" />
        </mxCell>
        <mxCell id="g65PGssA2T8bAS9LpWtc-222" style="edgeStyle=none;curved=1;rounded=0;orthogonalLoop=1;jettySize=auto;html=1;exitX=1;exitY=0.5;exitDx=0;exitDy=0;fontSize=12;startSize=8;endSize=8;" parent="1" source="g65PGssA2T8bAS9LpWtc-223" edge="1">
          <mxGeometry relative="1" as="geometry">
            <mxPoint x="966.2399999999999" y="1234.5" as="targetPoint" />
          </mxGeometry>
        </mxCell>
        <mxCell id="g65PGssA2T8bAS9LpWtc-223" value="合計金額 ← 合計金額 - 10" style="rounded=0;whiteSpace=wrap;html=1;" parent="1" vertex="1">
          <mxGeometry x="733.2399999999999" y="1219.5" width="170" height="30" as="geometry" />
        </mxCell>
        <mxCell id="g65PGssA2T8bAS9LpWtc-225" value="" style="endArrow=classic;html=1;rounded=0;fontSize=12;startSize=8;endSize=8;curved=1;entryX=0;entryY=0.5;entryDx=0;entryDy=0;" parent="1" edge="1">
          <mxGeometry width="50" height="50" relative="1" as="geometry">
            <mxPoint x="534.87" y="1234.1599999999999" as="sourcePoint" />
            <mxPoint x="591.8700000000001" y="1234.1599999999999" as="targetPoint" />
          </mxGeometry>
        </mxCell>
        <mxCell id="g65PGssA2T8bAS9LpWtc-226" value="" style="edgeStyle=segmentEdgeStyle;endArrow=classic;html=1;curved=0;rounded=0;endSize=8;startSize=8;fontSize=12;exitX=1;exitY=0.5;exitDx=0;exitDy=0;" parent="1" source="g65PGssA2T8bAS9LpWtc-203" edge="1">
          <mxGeometry width="50" height="50" relative="1" as="geometry">
            <mxPoint x="681.2399999999999" y="939.5" as="sourcePoint" />
            <mxPoint x="531.87" y="884.5" as="targetPoint" />
            <Array as="points">
              <mxPoint x="965.87" y="994.5" />
              <mxPoint x="965.87" y="884.5" />
            </Array>
          </mxGeometry>
        </mxCell>
        <mxCell id="g65PGssA2T8bAS9LpWtc-227" style="edgeStyle=none;curved=1;rounded=0;orthogonalLoop=1;jettySize=auto;html=1;entryX=0.5;entryY=0;entryDx=0;entryDy=0;fontSize=12;startSize=8;endSize=8;" parent="1" source="g65PGssA2T8bAS9LpWtc-228" target="g65PGssA2T8bAS9LpWtc-202" edge="1">
          <mxGeometry relative="1" as="geometry" />
        </mxCell>
        <mxCell id="g65PGssA2T8bAS9LpWtc-228" value="お釣りの排出" style="rounded=1;whiteSpace=wrap;html=1;" parent="1" vertex="1">
          <mxGeometry x="482.37000000000006" y="824.5" width="95" height="30" as="geometry" />
        </mxCell>
        <mxCell id="g65PGssA2T8bAS9LpWtc-229" style="edgeStyle=none;curved=1;rounded=0;orthogonalLoop=1;jettySize=auto;html=1;exitX=0.5;exitY=0;exitDx=0;exitDy=0;fontSize=12;startSize=8;endSize=8;" parent="1" source="g65PGssA2T8bAS9LpWtc-228" target="g65PGssA2T8bAS9LpWtc-228" edge="1">
          <mxGeometry relative="1" as="geometry" />
        </mxCell>
        <mxCell id="g65PGssA2T8bAS9LpWtc-231" value="&lt;div&gt;&lt;span style=&quot;background-color: initial;&quot;&gt;リターン&lt;/span&gt;&lt;/div&gt;" style="rounded=1;whiteSpace=wrap;html=1;" parent="1" vertex="1">
          <mxGeometry x="982.2399999999999" y="1264.5" width="109" height="40" as="geometry" />
        </mxCell>
        <mxCell id="g65PGssA2T8bAS9LpWtc-236" style="edgeStyle=none;curved=1;rounded=0;orthogonalLoop=1;jettySize=auto;html=1;exitX=1;exitY=0.5;exitDx=0;exitDy=0;fontSize=12;startSize=8;endSize=8;" parent="1" source="g65PGssA2T8bAS9LpWtc-235" edge="1">
          <mxGeometry relative="1" as="geometry">
            <mxPoint x="732.2399999999999" y="994.2826086956525" as="targetPoint" />
          </mxGeometry>
        </mxCell>
        <mxCell id="g65PGssA2T8bAS9LpWtc-235" value="1000円札を排出" style="rounded=0;whiteSpace=wrap;html=1;" parent="1" vertex="1">
          <mxGeometry x="592.24" y="979.5" width="96" height="30" as="geometry" />
        </mxCell>
        <mxCell id="g65PGssA2T8bAS9LpWtc-241" style="edgeStyle=none;curved=1;rounded=0;orthogonalLoop=1;jettySize=auto;html=1;fontSize=12;startSize=8;endSize=8;" parent="1" source="g65PGssA2T8bAS9LpWtc-237" edge="1">
          <mxGeometry relative="1" as="geometry">
            <mxPoint x="732.2399999999999" y="1054.5" as="targetPoint" />
          </mxGeometry>
        </mxCell>
        <mxCell id="g65PGssA2T8bAS9LpWtc-237" value="500円玉を排出" style="rounded=0;whiteSpace=wrap;html=1;" parent="1" vertex="1">
          <mxGeometry x="592.24" y="1039.5" width="96" height="30" as="geometry" />
        </mxCell>
        <mxCell id="g65PGssA2T8bAS9LpWtc-242" style="edgeStyle=none;curved=1;rounded=0;orthogonalLoop=1;jettySize=auto;html=1;fontSize=12;startSize=8;endSize=8;" parent="1" source="g65PGssA2T8bAS9LpWtc-238" edge="1">
          <mxGeometry relative="1" as="geometry">
            <mxPoint x="732.2399999999999" y="1114.5" as="targetPoint" />
          </mxGeometry>
        </mxCell>
        <mxCell id="g65PGssA2T8bAS9LpWtc-238" value="100円玉を排出" style="rounded=0;whiteSpace=wrap;html=1;" parent="1" vertex="1">
          <mxGeometry x="592.24" y="1099.5" width="96" height="30" as="geometry" />
        </mxCell>
        <mxCell id="g65PGssA2T8bAS9LpWtc-243" value="" style="edgeStyle=none;curved=1;rounded=0;orthogonalLoop=1;jettySize=auto;html=1;fontSize=12;startSize=8;endSize=8;" parent="1" source="g65PGssA2T8bAS9LpWtc-239" target="g65PGssA2T8bAS9LpWtc-209" edge="1">
          <mxGeometry relative="1" as="geometry" />
        </mxCell>
        <mxCell id="g65PGssA2T8bAS9LpWtc-239" value="50円玉を排出" style="rounded=0;whiteSpace=wrap;html=1;" parent="1" vertex="1">
          <mxGeometry x="592.24" y="1159.5" width="96" height="30" as="geometry" />
        </mxCell>
        <mxCell id="g65PGssA2T8bAS9LpWtc-244" style="edgeStyle=none;curved=1;rounded=0;orthogonalLoop=1;jettySize=auto;html=1;fontSize=12;startSize=8;endSize=8;" parent="1" source="g65PGssA2T8bAS9LpWtc-240" edge="1">
          <mxGeometry relative="1" as="geometry">
            <mxPoint x="732.2399999999999" y="1234.5" as="targetPoint" />
          </mxGeometry>
        </mxCell>
        <mxCell id="g65PGssA2T8bAS9LpWtc-240" value="10円玉を排出" style="rounded=0;whiteSpace=wrap;html=1;" parent="1" vertex="1">
          <mxGeometry x="592.24" y="1219.5" width="96" height="30" as="geometry" />
        </mxCell>
        <mxCell id="g65PGssA2T8bAS9LpWtc-245" value="" style="line;strokeWidth=2;direction=south;html=1;" parent="1" vertex="1">
          <mxGeometry x="962.2399999999999" y="884.5" width="10" height="350" as="geometry" />
        </mxCell>
        <mxCell id="g65PGssA2T8bAS9LpWtc-247" value="&lt;span style=&quot;font-size: 10px; font-weight: 400;&quot;&gt;合計金額 ≦ 0&lt;/span&gt;" style="text;strokeColor=none;fillColor=none;html=1;fontSize=24;fontStyle=1;verticalAlign=middle;align=center;" parent="1" vertex="1">
          <mxGeometry x="525.87" y="1240.5" width="100" height="40" as="geometry" />
        </mxCell>
        <mxCell id="g65PGssA2T8bAS9LpWtc-250" value="お釣りの排出" style="shape=process;whiteSpace=wrap;html=1;backgroundOutline=1;" parent="1" vertex="1">
          <mxGeometry x="118.75" y="637.75" width="120" height="40" as="geometry" />
        </mxCell>
        <mxCell id="g65PGssA2T8bAS9LpWtc-252" value="商品ボタンの&lt;div&gt;ランプ消灯&lt;/div&gt;" style="shape=process;whiteSpace=wrap;html=1;backgroundOutline=1;" parent="1" vertex="1">
          <mxGeometry x="120.02" y="700" width="120" height="40" as="geometry" />
        </mxCell>
        <mxCell id="g65PGssA2T8bAS9LpWtc-327" style="edgeStyle=none;curved=1;rounded=0;orthogonalLoop=1;jettySize=auto;html=1;exitX=0.5;exitY=1;exitDx=0;exitDy=0;entryX=0.5;entryY=0;entryDx=0;entryDy=0;fontSize=12;startSize=8;endSize=8;" parent="1" source="g65PGssA2T8bAS9LpWtc-341" target="g65PGssA2T8bAS9LpWtc-330" edge="1">
          <mxGeometry relative="1" as="geometry">
            <mxPoint x="887.8100000000002" y="268" as="sourcePoint" />
          </mxGeometry>
        </mxCell>
        <mxCell id="g65PGssA2T8bAS9LpWtc-330" value="リターン" style="rounded=1;whiteSpace=wrap;html=1;" parent="1" vertex="1">
          <mxGeometry x="847.81" y="510" width="80" height="30" as="geometry" />
        </mxCell>
        <mxCell id="g65PGssA2T8bAS9LpWtc-337" style="edgeStyle=none;curved=1;rounded=0;orthogonalLoop=1;jettySize=auto;html=1;exitX=0.5;exitY=1;exitDx=0;exitDy=0;entryX=0.5;entryY=0;entryDx=0;entryDy=0;fontSize=12;startSize=8;endSize=8;" parent="1" source="g65PGssA2T8bAS9LpWtc-335" target="g65PGssA2T8bAS9LpWtc-336" edge="1">
          <mxGeometry relative="1" as="geometry" />
        </mxCell>
        <mxCell id="g65PGssA2T8bAS9LpWtc-335" value="売り切れランプの表示" style="rounded=1;whiteSpace=wrap;html=1;" parent="1" vertex="1">
          <mxGeometry x="837.31" width="101" height="44.5" as="geometry" />
        </mxCell>
        <mxCell id="g65PGssA2T8bAS9LpWtc-360" style="edgeStyle=none;curved=1;rounded=0;orthogonalLoop=1;jettySize=auto;html=1;fontSize=12;startSize=8;endSize=8;" parent="1" source="g65PGssA2T8bAS9LpWtc-336" target="g65PGssA2T8bAS9LpWtc-341" edge="1">
          <mxGeometry relative="1" as="geometry" />
        </mxCell>
        <mxCell id="g65PGssA2T8bAS9LpWtc-336" value="&lt;span style=&quot;font-size: 11px;&quot;&gt;お茶の在庫がある&lt;/span&gt;" style="rhombus;whiteSpace=wrap;html=1;" parent="1" vertex="1">
          <mxGeometry x="805.56" y="80" width="164.5" height="40" as="geometry" />
        </mxCell>
        <mxCell id="g65PGssA2T8bAS9LpWtc-347" style="edgeStyle=none;curved=1;rounded=0;orthogonalLoop=1;jettySize=auto;html=1;exitX=0.5;exitY=1;exitDx=0;exitDy=0;entryX=0.5;entryY=0;entryDx=0;entryDy=0;fontSize=12;startSize=8;endSize=8;" parent="1" target="g65PGssA2T8bAS9LpWtc-341" edge="1">
          <mxGeometry relative="1" as="geometry">
            <mxPoint x="887.8100000000002" y="200" as="sourcePoint" />
          </mxGeometry>
        </mxCell>
        <mxCell id="g65PGssA2T8bAS9LpWtc-341" value="&lt;span style=&quot;font-size: 11px;&quot;&gt;ジュースの在庫がある&lt;/span&gt;" style="rhombus;whiteSpace=wrap;html=1;" parent="1" vertex="1">
          <mxGeometry x="805.56" y="220" width="164.5" height="40" as="geometry" />
        </mxCell>
        <mxCell id="g65PGssA2T8bAS9LpWtc-344" value="&lt;span style=&quot;font-size: 11px;&quot;&gt;コーヒーの在庫がある&lt;/span&gt;" style="rhombus;whiteSpace=wrap;html=1;" parent="1" vertex="1">
          <mxGeometry x="804.25" y="360" width="164.5" height="40" as="geometry" />
        </mxCell>
        <mxCell id="g65PGssA2T8bAS9LpWtc-346" value="" style="edgeStyle=segmentEdgeStyle;endArrow=classic;html=1;curved=0;rounded=0;endSize=8;startSize=8;fontSize=12;" parent="1" edge="1">
          <mxGeometry width="50" height="50" relative="1" as="geometry">
            <mxPoint x="970.06" y="100" as="sourcePoint" />
            <mxPoint x="887.31" y="200" as="targetPoint" />
            <Array as="points">
              <mxPoint x="987.31" y="100" />
              <mxPoint x="987.31" y="200" />
            </Array>
          </mxGeometry>
        </mxCell>
        <mxCell id="g65PGssA2T8bAS9LpWtc-349" value="" style="edgeStyle=segmentEdgeStyle;endArrow=classic;html=1;curved=0;rounded=0;endSize=8;startSize=8;fontSize=12;" parent="1" edge="1">
          <mxGeometry width="50" height="50" relative="1" as="geometry">
            <mxPoint x="968.29" y="240" as="sourcePoint" />
            <mxPoint x="885.54" y="340" as="targetPoint" />
            <Array as="points">
              <mxPoint x="985.54" y="240" />
              <mxPoint x="985.54" y="340" />
            </Array>
          </mxGeometry>
        </mxCell>
        <mxCell id="g65PGssA2T8bAS9LpWtc-350" value="" style="edgeStyle=segmentEdgeStyle;endArrow=classic;html=1;curved=0;rounded=0;endSize=8;startSize=8;fontSize=12;" parent="1" edge="1">
          <mxGeometry width="50" height="50" relative="1" as="geometry">
            <mxPoint x="968.23" y="380" as="sourcePoint" />
            <mxPoint x="885.48" y="480" as="targetPoint" />
            <Array as="points">
              <mxPoint x="985.48" y="380" />
              <mxPoint x="985.48" y="480" />
            </Array>
          </mxGeometry>
        </mxCell>
        <mxCell id="g65PGssA2T8bAS9LpWtc-351" value="&lt;font style=&quot;font-weight: normal; font-size: 10px;&quot;&gt;Yes&lt;/font&gt;" style="text;strokeColor=none;fillColor=none;html=1;fontSize=24;fontStyle=1;verticalAlign=middle;align=center;" parent="1" vertex="1">
          <mxGeometry x="837.31" y="105" width="40" height="35" as="geometry" />
        </mxCell>
        <mxCell id="g65PGssA2T8bAS9LpWtc-352" value="&lt;font style=&quot;font-weight: normal; font-size: 10px;&quot;&gt;No&lt;/font&gt;" style="text;strokeColor=none;fillColor=none;html=1;fontSize=24;fontStyle=1;verticalAlign=middle;align=center;" parent="1" vertex="1">
          <mxGeometry x="955.5" y="60" width="40" height="35" as="geometry" />
        </mxCell>
        <mxCell id="g65PGssA2T8bAS9LpWtc-353" value="&lt;font style=&quot;font-weight: normal; font-size: 10px;&quot;&gt;Yes&lt;/font&gt;" style="text;strokeColor=none;fillColor=none;html=1;fontSize=24;fontStyle=1;verticalAlign=middle;align=center;" parent="1" vertex="1">
          <mxGeometry x="837.31" y="245" width="40" height="35" as="geometry" />
        </mxCell>
        <mxCell id="g65PGssA2T8bAS9LpWtc-354" value="&lt;font style=&quot;font-weight: normal; font-size: 10px;&quot;&gt;No&lt;/font&gt;" style="text;strokeColor=none;fillColor=none;html=1;fontSize=24;fontStyle=1;verticalAlign=middle;align=center;" parent="1" vertex="1">
          <mxGeometry x="955.5" y="200" width="40" height="35" as="geometry" />
        </mxCell>
        <mxCell id="g65PGssA2T8bAS9LpWtc-355" value="&lt;font style=&quot;font-weight: normal; font-size: 10px;&quot;&gt;Yes&lt;/font&gt;" style="text;strokeColor=none;fillColor=none;html=1;fontSize=24;fontStyle=1;verticalAlign=middle;align=center;" parent="1" vertex="1">
          <mxGeometry x="827.31" y="385" width="40" height="35" as="geometry" />
        </mxCell>
        <mxCell id="g65PGssA2T8bAS9LpWtc-356" value="&lt;font style=&quot;font-weight: normal; font-size: 10px;&quot;&gt;No&lt;/font&gt;" style="text;strokeColor=none;fillColor=none;html=1;fontSize=24;fontStyle=1;verticalAlign=middle;align=center;" parent="1" vertex="1">
          <mxGeometry x="945.5" y="340" width="40" height="35" as="geometry" />
        </mxCell>
        <mxCell id="g65PGssA2T8bAS9LpWtc-357" value="&lt;font style=&quot;font-size: 19px;&quot;&gt;前提条件&lt;/font&gt;&lt;div style=&quot;font-size: 19px;&quot;&gt;&lt;font style=&quot;font-weight: normal; font-size: 19px;&quot;&gt;本自販機で販売している商品（３種類）の&lt;/font&gt;&lt;/div&gt;&lt;div style=&quot;font-size: 19px;&quot;&gt;&lt;font style=&quot;font-weight: normal; font-size: 19px;&quot;&gt;商品名と価格は以下の通りである&lt;/font&gt;&lt;/div&gt;&lt;div style=&quot;font-size: 19px;&quot;&gt;&lt;font style=&quot;font-weight: normal; font-size: 19px;&quot;&gt;&lt;br&gt;&lt;/font&gt;&lt;/div&gt;&lt;div style=&quot;font-size: 19px;&quot;&gt;&lt;font style=&quot;font-weight: normal; font-size: 19px;&quot;&gt;・お茶　　　１３０円&lt;/font&gt;&lt;/div&gt;&lt;div style=&quot;font-size: 19px;&quot;&gt;&lt;font style=&quot;font-weight: normal; font-size: 19px;&quot;&gt;・ジュース　１６０円&lt;/font&gt;&lt;/div&gt;&lt;div style=&quot;font-size: 19px;&quot;&gt;&lt;font style=&quot;font-weight: normal; font-size: 19px;&quot;&gt;・コーヒー　２００円&lt;/font&gt;&lt;/div&gt;&lt;div style=&quot;font-size: 19px;&quot;&gt;&lt;font style=&quot;font-size: 19px;&quot;&gt;&lt;br&gt;&lt;/font&gt;&lt;/div&gt;&lt;div style=&quot;font-size: 19px;&quot;&gt;&lt;font style=&quot;font-weight: normal; font-size: 19px;&quot;&gt;&lt;span style=&quot;color: rgb(45, 47, 49); font-family: &amp;quot;Udemy Sans&amp;quot;, &amp;quot;SF Pro Text&amp;quot;, -apple-system, BlinkMacSystemFont, Roboto, &amp;quot;Segoe UI&amp;quot;, Helvetica, Arial, sans-serif, &amp;quot;Apple Color Emoji&amp;quot;, &amp;quot;Segoe UI Emoji&amp;quot;, &amp;quot;Segoe UI Symbol&amp;quot;; text-wrap: wrap; background-color: rgb(255, 255, 255);&quot;&gt;・1円玉、5円玉、5000円札、10000円札は使用不可&lt;/span&gt;&lt;/font&gt;&lt;/div&gt;&lt;div style=&quot;font-size: 19px;&quot;&gt;&lt;span style=&quot;font-weight: 400;&quot;&gt;&lt;font style=&quot;font-size: 19px;&quot;&gt;・釣銭切れは起きないものとする&lt;/font&gt;&lt;/span&gt;&lt;/div&gt;" style="text;strokeColor=none;fillColor=none;html=1;fontSize=10;fontStyle=1;verticalAlign=middle;align=left;" parent="1" vertex="1">
          <mxGeometry x="399.9999999999999" y="270" width="465.13" height="180" as="geometry" />
        </mxCell>
        <mxCell id="g65PGssA2T8bAS9LpWtc-338" value="&lt;div&gt;お茶の&lt;/div&gt;売り切れランプ点灯" style="rounded=0;whiteSpace=wrap;html=1;" parent="1" vertex="1">
          <mxGeometry x="926.5" y="135" width="122.5" height="40" as="geometry" />
        </mxCell>
        <mxCell id="g65PGssA2T8bAS9LpWtc-342" value="&lt;div&gt;ジュースの&lt;/div&gt;売り切れランプ点灯" style="rounded=0;whiteSpace=wrap;html=1;" parent="1" vertex="1">
          <mxGeometry x="926.5" y="285" width="122.5" height="40" as="geometry" />
        </mxCell>
        <mxCell id="g65PGssA2T8bAS9LpWtc-345" value="&lt;div&gt;コーヒーの&lt;/div&gt;売り切れランプ点灯" style="rounded=0;whiteSpace=wrap;html=1;" parent="1" vertex="1">
          <mxGeometry x="926.5" y="415" width="122.5" height="40" as="geometry" />
        </mxCell>
        <mxCell id="g65PGssA2T8bAS9LpWtc-363" value="&lt;span style=&quot;font-size: 11px;&quot;&gt;点灯しているボタンが押された&lt;/span&gt;" style="rhombus;whiteSpace=wrap;html=1;" parent="1" vertex="1">
          <mxGeometry x="66.5" y="474" width="223.5" height="40" as="geometry" />
        </mxCell>
        <mxCell id="g65PGssA2T8bAS9LpWtc-364" value="&lt;font style=&quot;font-weight: normal; font-size: 10px;&quot;&gt;Yes&lt;/font&gt;" style="text;strokeColor=none;fillColor=none;html=1;fontSize=24;fontStyle=1;verticalAlign=middle;align=center;" parent="1" vertex="1">
          <mxGeometry x="264.87" y="370" width="40" height="35" as="geometry" />
        </mxCell>
        <mxCell id="g65PGssA2T8bAS9LpWtc-365" value="&lt;span style=&quot;font-size: 10px; font-weight: 400;&quot;&gt;No&lt;/span&gt;" style="text;strokeColor=none;fillColor=none;html=1;fontSize=24;fontStyle=1;verticalAlign=middle;align=center;" parent="1" vertex="1">
          <mxGeometry x="50" y="454" width="40" height="35" as="geometry" />
        </mxCell>
        <mxCell id="g65PGssA2T8bAS9LpWtc-366" value="合計金額 ← 合計金額 - 商品金額" style="rounded=0;whiteSpace=wrap;html=1;" parent="1" vertex="1">
          <mxGeometry x="82.51999999999998" y="535" width="194.99" height="30" as="geometry" />
        </mxCell>
        <mxCell id="g65PGssA2T8bAS9LpWtc-367" value="お茶の&lt;div&gt;売り切れランプは点灯しているか&lt;/div&gt;" style="rhombus;whiteSpace=wrap;html=1;" parent="1" vertex="1">
          <mxGeometry x="1101.25" y="648" width="262" height="59.5" as="geometry" />
        </mxCell>
        <mxCell id="g65PGssA2T8bAS9LpWtc-370" style="edgeStyle=none;curved=1;rounded=0;orthogonalLoop=1;jettySize=auto;html=1;exitX=1;exitY=0.5;exitDx=0;exitDy=0;fontSize=12;startSize=8;endSize=8;" parent="1" edge="1">
          <mxGeometry relative="1" as="geometry">
            <mxPoint x="1449.25" y="752" as="targetPoint" />
            <mxPoint x="1308.25" y="751.73" as="sourcePoint" />
          </mxGeometry>
        </mxCell>
        <mxCell id="g65PGssA2T8bAS9LpWtc-371" value="ジュースの&lt;div&gt;売り切れランプは点灯しているか&lt;/div&gt;" style="rhombus;whiteSpace=wrap;html=1;" parent="1" vertex="1">
          <mxGeometry x="1101.25" y="877.75" width="262" height="59.5" as="geometry" />
        </mxCell>
        <mxCell id="g65PGssA2T8bAS9LpWtc-372" value="コーヒーの&lt;div&gt;売り切れランプは点灯しているか&lt;/div&gt;" style="rhombus;whiteSpace=wrap;html=1;" parent="1" vertex="1">
          <mxGeometry x="1101.25" y="1088" width="262" height="59.5" as="geometry" />
        </mxCell>
        <mxCell id="g65PGssA2T8bAS9LpWtc-373" value="" style="edgeStyle=segmentEdgeStyle;endArrow=classic;html=1;curved=0;rounded=0;endSize=8;startSize=8;fontSize=12;exitX=1;exitY=0.5;exitDx=0;exitDy=0;" parent="1" source="g65PGssA2T8bAS9LpWtc-371" edge="1">
          <mxGeometry width="50" height="50" relative="1" as="geometry">
            <mxPoint x="1409.25" y="908" as="sourcePoint" />
            <mxPoint x="1234.56" y="1077.46" as="targetPoint" />
            <Array as="points">
              <mxPoint x="1453.25" y="908" />
              <mxPoint x="1453.25" y="1078" />
            </Array>
          </mxGeometry>
        </mxCell>
        <mxCell id="g65PGssA2T8bAS9LpWtc-374" value="" style="edgeStyle=segmentEdgeStyle;endArrow=classic;html=1;curved=0;rounded=0;endSize=8;startSize=8;fontSize=12;exitX=1;exitY=0.5;exitDx=0;exitDy=0;" parent="1" edge="1">
          <mxGeometry width="50" height="50" relative="1" as="geometry">
            <mxPoint x="1363.42" y="1117.96" as="sourcePoint" />
            <mxPoint x="1234.73" y="1287.42" as="targetPoint" />
            <Array as="points">
              <mxPoint x="1453.42" y="1117.96" />
              <mxPoint x="1453.42" y="1287.96" />
            </Array>
          </mxGeometry>
        </mxCell>
      </root>
    </mxGraphModel>
  </diagram>
  <diagram id="gTD59hVU8KX_UkCsJQdo" name="ページ2">
    <mxGraphModel dx="794" dy="462" grid="0" gridSize="10" guides="1" tooltips="1" connect="1" arrows="1" fold="1" page="0" pageScale="1" pageWidth="827" pageHeight="1169" math="0" shadow="0">
      <root>
        <mxCell id="0" />
        <mxCell id="1" parent="0" />
      </root>
    </mxGraphModel>
  </diagram>
</mxfile>
